<svg width="2120" height="564" viewBox="0 0 2120 564" fill="none" xmlns="http://www.w3.org/2000/svg">
<path d="M48.812 448V123.902H175.21C203.607 123.902 227.838 128.377 247.901 137.329C267.964 146.28 283.397 159.244 294.201 176.221C305.004 193.197 310.405 213.415 310.405 236.873C310.405 260.332 305.004 280.549 294.201 297.526C283.397 314.194 267.964 327.158 247.901 336.418C227.838 345.369 203.607 349.845 175.21 349.845H74.2768L95.1117 328.084V448H48.812ZM95.1117 332.714L74.2768 309.564H173.821C203.453 309.564 225.831 303.236 240.956 290.581C256.389 277.926 264.106 260.023 264.106 236.873C264.106 213.723 256.389 195.821 240.956 183.166C225.831 170.51 203.453 164.183 173.821 164.183H74.2768L95.1117 141.033V332.714ZM367.423 448V202.611H410.019V269.283L405.852 252.615C412.642 235.639 424.063 222.675 440.113 213.723C456.164 204.772 475.919 200.296 499.377 200.296V243.355C497.525 243.046 495.673 242.892 493.821 242.892C492.278 242.892 490.735 242.892 489.191 242.892C465.424 242.892 446.595 249.991 432.706 264.19C418.816 278.389 411.871 298.915 411.871 325.769V448H367.423ZM661.166 450.778C634.929 450.778 611.779 445.376 591.716 434.573C571.962 423.77 556.528 408.954 545.416 390.125C534.613 371.297 529.212 349.69 529.212 325.306C529.212 300.921 534.459 279.315 544.953 260.486C555.757 241.658 570.418 226.996 588.938 216.501C607.767 205.698 628.91 200.296 652.369 200.296C676.136 200.296 697.125 205.544 715.336 216.038C733.548 226.533 747.746 241.349 757.932 260.486C768.427 279.315 773.674 301.384 773.674 326.695C773.674 328.547 773.52 330.707 773.211 333.177C773.211 335.646 773.057 337.961 772.748 340.122H563.936V308.175H749.598L731.541 319.287C731.85 303.545 728.609 289.501 721.818 277.154C715.028 264.807 705.614 255.239 693.576 248.448C681.846 241.349 668.111 237.799 652.369 237.799C636.936 237.799 623.2 241.349 611.162 248.448C599.124 255.239 589.71 264.962 582.919 277.617C576.129 289.964 572.733 304.162 572.733 320.213V327.621C572.733 343.98 576.437 358.642 583.845 371.605C591.562 384.261 602.211 394.138 615.792 401.237C629.373 408.337 644.961 411.886 662.555 411.886C677.062 411.886 690.18 409.417 701.91 404.478C713.947 399.54 724.442 392.132 733.393 382.254L757.932 410.96C746.82 423.924 732.93 433.801 716.262 440.592C699.903 447.383 681.538 450.778 661.166 450.778ZM835.394 448V104.456H879.842V448H835.394ZM1069.81 450.778C1045.11 450.778 1023.2 445.376 1004.06 434.573C984.925 423.77 969.801 408.954 958.689 390.125C947.577 370.988 942.021 349.382 942.021 325.306C942.021 300.921 947.577 279.315 958.689 260.486C969.801 241.658 984.925 226.996 1004.06 216.501C1023.2 205.698 1045.11 200.296 1069.81 200.296C1094.19 200.296 1115.95 205.698 1135.09 216.501C1154.54 226.996 1169.66 241.658 1180.46 260.486C1191.58 279.006 1197.13 300.613 1197.13 325.306C1197.13 349.69 1191.58 371.297 1180.46 390.125C1169.66 408.954 1154.54 423.77 1135.09 434.573C1115.95 445.376 1094.19 450.778 1069.81 450.778ZM1069.81 411.886C1085.55 411.886 1099.59 408.337 1111.94 401.237C1124.6 394.138 1134.47 384.106 1141.57 371.142C1148.67 357.87 1152.22 342.591 1152.22 325.306C1152.22 307.712 1148.67 292.587 1141.57 279.932C1134.47 266.968 1124.6 256.936 1111.94 249.837C1099.59 242.738 1085.55 239.188 1069.81 239.188C1054.07 239.188 1040.02 242.738 1027.68 249.837C1015.33 256.936 1005.45 266.968 998.043 279.932C990.635 292.587 986.931 307.712 986.931 325.306C986.931 342.591 990.635 357.87 998.043 371.142C1005.45 384.106 1015.33 394.138 1027.68 401.237C1040.02 408.337 1054.07 411.886 1069.81 411.886ZM1672.11 450.778C1645.87 450.778 1622.72 445.376 1602.66 434.573C1582.91 423.77 1567.47 408.954 1556.36 390.125C1545.56 371.297 1540.16 349.69 1540.16 325.306C1540.16 300.921 1545.4 279.315 1555.9 260.486C1566.7 241.658 1581.36 226.996 1599.88 216.501C1618.71 205.698 1639.85 200.296 1663.31 200.296C1687.08 200.296 1708.07 205.544 1726.28 216.038C1744.49 226.533 1758.69 241.349 1768.88 260.486C1779.37 279.315 1784.62 301.384 1784.62 326.695C1784.62 328.547 1784.46 330.707 1784.15 333.177C1784.15 335.646 1784 337.961 1783.69 340.122H1574.88V308.175H1760.54L1742.49 319.287C1742.79 303.545 1739.55 289.501 1732.76 277.154C1725.97 264.807 1716.56 255.239 1704.52 248.448C1692.79 241.349 1679.05 237.799 1663.31 237.799C1647.88 237.799 1634.14 241.349 1622.11 248.448C1610.07 255.239 1600.65 264.962 1593.86 277.617C1587.07 289.964 1583.68 304.162 1583.68 320.213V327.621C1583.68 343.98 1587.38 358.642 1594.79 371.605C1602.51 384.261 1613.15 394.138 1626.74 401.237C1640.32 408.337 1655.9 411.886 1673.5 411.886C1688.01 411.886 1701.12 409.417 1712.85 404.478C1724.89 399.54 1735.39 392.132 1744.34 382.254L1768.88 410.96C1757.76 423.924 1743.87 433.801 1727.21 440.592C1710.85 447.383 1692.48 450.778 1672.11 450.778ZM1947.73 450.778C1923.97 450.778 1902.67 445.531 1883.84 435.036C1865.32 424.541 1850.66 409.88 1839.86 391.051C1829.05 372.223 1823.65 350.308 1823.65 325.306C1823.65 300.304 1829.05 278.543 1839.86 260.023C1850.66 241.195 1865.32 226.533 1883.84 216.038C1902.67 205.544 1923.97 200.296 1947.73 200.296C1968.41 200.296 1987.09 204.926 2003.76 214.186C2020.42 223.446 2033.7 237.336 2043.57 255.856C2053.76 274.376 2058.85 297.526 2058.85 325.306C2058.85 353.086 2053.91 376.235 2044.04 394.755C2034.47 413.275 2021.35 427.319 2004.68 436.888C1988.01 446.148 1969.03 450.778 1947.73 450.778ZM1951.44 411.886C1966.87 411.886 1980.76 408.337 1993.11 401.237C2005.76 394.138 2015.64 384.106 2022.74 371.142C2030.15 357.87 2033.85 342.591 2033.85 325.306C2033.85 307.712 2030.15 292.587 2022.74 279.932C2015.64 266.968 2005.76 256.936 1993.11 249.837C1980.76 242.738 1966.87 239.188 1951.44 239.188C1935.7 239.188 1921.65 242.738 1909.31 249.837C1896.96 256.936 1887.08 266.968 1879.67 279.932C1872.27 292.587 1868.56 307.712 1868.56 325.306C1868.56 342.591 1872.27 357.87 1879.67 371.142C1887.08 384.106 1896.96 394.138 1909.31 401.237C1921.65 408.337 1935.7 411.886 1951.44 411.886ZM2035.24 448V381.791L2038.02 324.843L2033.39 267.894V104.456H2077.84V448H2035.24Z" fill="#1A1A1A"/>
<path d="M1364.16 346.024L1301.32 254.187C1296.94 247.778 1288.09 246.322 1281.88 250.988L1242.14 280.852C1235.95 285.502 1234.87 294.367 1239.77 300.365L1346.39 431.088C1351.67 437.564 1361.49 437.806 1367.08 431.598L1507.64 275.637C1512.14 270.645 1512.33 263.118 1508.09 257.906L1477.29 220.06C1472.19 213.795 1462.79 213.314 1457.07 219.027L1394.14 281.957" stroke="#FF9F2D" stroke-width="30.8665"/>
<path d="M1331.12 343.39L1361.08 349.246C1363.65 349.748 1366.22 348.348 1367.19 345.912L1377.42 320.24" stroke="#FF9F2D" stroke-width="11.5749" stroke-linecap="round"/>
<path d="M1390.05 254.649L1390.05 280.594C1390.05 283.605 1392.5 286.046 1395.51 286.046L1423.72 286.046" stroke="#FF9F2D" stroke-width="11.5749" stroke-linecap="round"/>
</svg>
